<?xml version="1.0" encoding="UTF-8" standalone="no"?>
<!DOCTYPE svg PUBLIC "-//W3C//DTD SVG 1.1//EN"
 "http://www.w3.org/Graphics/SVG/1.1/DTD/svg11.dtd">
<!-- Generated by graphviz version 15.1.0 (20260618.0150)
 -->
<!-- Title: after Pages: 1 -->
<svg width="884pt" height="522pt"
 viewBox="0.00 0.00 884.00 522.00" xmlns="http://www.w3.org/2000/svg" xmlns:xlink="http://www.w3.org/1999/xlink">
<g id="graph0" class="graph" transform="scale(1 1) rotate(0) translate(25.2 496.36)">
<title>after</title>
<polygon fill="white" stroke="none" points="-25.2,25.2 -25.2,-496.36 858.55,-496.36 858.55,25.2 -25.2,25.2"/>
<!-- Customer -->
<g id="node1" class="node">
<title>Customer</title>
<ellipse fill="#accce4" stroke="#37618e" stroke-width="1.6" cx="173.6" cy="-429.91" rx="41.25" ry="41.25"/>
<text xml:space="preserve" text-anchor="middle" x="173.6" y="-425.06" font-family="Helvetica,sans-Serif" font-size="13.00">Customer</text>
</g>
<!-- Product -->
<g id="node2" class="node">
<title>Product</title>
<ellipse fill="#accce4" stroke="#37618e" stroke-width="1.6" cx="186.6" cy="-177" rx="34.11" ry="34.11"/>
<text xml:space="preserve" text-anchor="middle" x="186.6" y="-172.15" font-family="Helvetica,sans-Serif" font-size="13.00">Product</text>
</g>
<!-- Customer&#45;&gt;Product -->
<g id="edge6" class="edge">
<title>Customer&#45;&gt;Product</title>
<path fill="none" stroke="#3a3a3a" stroke-width="1.1" d="M209.03,-407.39C221.42,-397.83 233.89,-385.38 240.6,-370.66 264.41,-318.42 234.98,-253.35 211.13,-213.77"/>
<polygon fill="#3a3a3a" stroke="#3a3a3a" stroke-width="1.1" points="213.61,-212.47 207.02,-207.15 208.85,-215.42 213.61,-212.47"/>
<text xml:space="preserve" text-anchor="middle" x="278.28" y="-304.48" font-family="Helvetica,sans-Serif" font-size="10.00" fill="#2a2a2a">WANTS ·005</text>
</g>
<!-- Customer&#45;&gt;Product -->
<g id="edge7" class="edge">
<title>Customer&#45;&gt;Product</title>
<path fill="none" stroke="#3a3a3a" stroke-width="1.1" d="M132.9,-419.5C93.92,-408.09 37.28,-384.66 11.1,-340.66 -3.75,-315.69 -3.64,-300.33 11.1,-275.3 39.54,-227.02 101.52,-201 143.67,-188.32"/>
<polygon fill="#3a3a3a" stroke="#3a3a3a" stroke-width="1.1" points="144.36,-191.04 151.27,-186.13 142.81,-185.66 144.36,-191.04"/>
<text xml:space="preserve" text-anchor="middle" x="38.85" y="-304.48" font-family="Helvetica,sans-Serif" font-size="10.00" fill="#2a2a2a">RATED ·009</text>
</g>
<!-- Order -->
<g id="node3" class="node">
<title>Order</title>
<ellipse fill="#accce4" stroke="#37618e" stroke-width="1.6" cx="384.6" cy="-307.98" rx="26.01" ry="26.01"/>
<text xml:space="preserve" text-anchor="middle" x="384.6" y="-303.13" font-family="Helvetica,sans-Serif" font-size="13.00">Order</text>
</g>
<!-- Customer&#45;&gt;Order -->
<g id="edge2" class="edge">
<title>Customer&#45;&gt;Order</title>
<path fill="none" stroke="#3a3a3a" stroke-width="1.1" d="M209.4,-408.56C249.95,-385.51 315.38,-348.33 353.76,-326.51"/>
<polygon fill="#3a3a3a" stroke="#3a3a3a" stroke-width="1.1" points="354.97,-329.05 360.54,-322.66 352.2,-324.18 354.97,-329.05"/>
<text xml:space="preserve" text-anchor="middle" x="322.86" y="-361.16" font-family="Helvetica,sans-Serif" font-size="10.00" fill="#2a2a2a">PLACED ·006</text>
</g>
<!-- Review -->
<g id="node4" class="node">
<title>Review</title>
<ellipse fill="#accce4" stroke="#37618e" stroke-width="1.6" cx="108.6" cy="-307.98" rx="32.68" ry="32.68"/>
<text xml:space="preserve" text-anchor="middle" x="108.6" y="-303.13" font-family="Helvetica,sans-Serif" font-size="13.00">Review</text>
</g>
<!-- Customer&#45;&gt;Review -->
<g id="edge4" class="edge">
<title>Customer&#45;&gt;Review</title>
<path fill="none" stroke="#3a3a3a" stroke-width="1.1" d="M139.33,-406.07C127.99,-396.58 116.67,-384.51 110.35,-370.66 107.51,-364.42 105.98,-357.46 105.29,-350.51"/>
<polygon fill="#3a3a3a" stroke="#3a3a3a" stroke-width="1.1" points="108.1,-350.63 104.89,-342.79 102.5,-350.92 108.1,-350.63"/>
<text xml:space="preserve" text-anchor="middle" x="139.98" y="-361.16" font-family="Helvetica,sans-Serif" font-size="10.00" fill="#2a2a2a">WROTE ·003</text>
</g>
<!-- State -->
<g id="node7" class="node">
<title>State</title>
<ellipse fill="#accce4" stroke="#37618e" stroke-width="1.6" cx="183.6" cy="-307.98" rx="24.58" ry="24.58"/>
<text xml:space="preserve" text-anchor="middle" x="183.6" y="-303.13" font-family="Helvetica,sans-Serif" font-size="13.00">State</text>
</g>
<!-- Customer&#45;&gt;State -->
<g id="edge1" class="edge">
<title>Customer&#45;&gt;State</title>
<path fill="none" stroke="#3a3a3a" stroke-width="1.1" d="M173.05,-387.98C173.23,-378.35 173.68,-368.13 174.6,-358.66 175.14,-353.18 175.95,-347.4 176.87,-341.8"/>
<polygon fill="#3a3a3a" stroke="#3a3a3a" stroke-width="1.1" points="179.57,-342.63 178.21,-334.26 174.05,-341.65 179.57,-342.63"/>
<text xml:space="preserve" text-anchor="middle" x="207.6" y="-361.16" font-family="Helvetica,sans-Serif" font-size="10.00" fill="#2a2a2a">LIVES_IN ·004</text>
</g>
<!-- Product&#45;&gt;Product -->
<g id="edge11" class="edge">
<title>Product&#45;&gt;Product</title>
<path fill="none" stroke="#3a3a3a" stroke-width="1.1" d="M218.4,-190.92C229.61,-191.14 238.71,-186.5 238.71,-177 238.71,-170.31 234.21,-166.04 227.65,-164.16"/>
<polygon fill="#3a3a3a" stroke="#3a3a3a" stroke-width="1.1" points="228.33,-161.42 220.06,-163.27 227.68,-166.98 228.33,-161.42"/>
<text xml:space="preserve" text-anchor="middle" x="286.71" y="-173.5" font-family="Helvetica,sans-Serif" font-size="10.00" fill="#2a2a2a">ALSO_BOUGHT ·012</text>
</g>
<!-- Category -->
<g id="node5" class="node">
<title>Category</title>
<ellipse fill="#accce4" stroke="#37618e" stroke-width="1.6" cx="75.6" cy="-39.35" rx="39.35" ry="39.35"/>
<text xml:space="preserve" text-anchor="middle" x="75.6" y="-34.5" font-family="Helvetica,sans-Serif" font-size="13.00">Category</text>
</g>
<!-- Product&#45;&gt;Category -->
<g id="edge9" class="edge">
<title>Product&#45;&gt;Category</title>
<path fill="none" stroke="#3a3a3a" stroke-width="1.1" d="M165.2,-149.84C148.49,-129.42 125.04,-100.76 106.32,-77.89"/>
<polygon fill="#3a3a3a" stroke="#3a3a3a" stroke-width="1.1" points="108.72,-76.39 101.48,-71.97 104.38,-79.94 108.72,-76.39"/>
<text xml:space="preserve" text-anchor="middle" x="177.23" y="-99.19" font-family="Helvetica,sans-Serif" font-size="10.00" fill="#2a2a2a">IN_CATEGORY ·007</text>
</g>
<!-- Vendor -->
<g id="node6" class="node">
<title>Vendor</title>
<ellipse fill="#accce4" stroke="#37618e" stroke-width="1.6" cx="298.6" cy="-39.35" rx="31.73" ry="31.73"/>
<text xml:space="preserve" text-anchor="middle" x="298.6" y="-34.5" font-family="Helvetica,sans-Serif" font-size="13.00">Vendor</text>
</g>
<!-- Product&#45;&gt;Vendor -->
<g id="edge8" class="edge">
<title>Product&#45;&gt;Vendor</title>
<path fill="none" stroke="#3a3a3a" stroke-width="1.1" d="M208.2,-149.84C226.55,-127.61 252.96,-95.63 272.5,-71.97"/>
<polygon fill="#3a3a3a" stroke="#3a3a3a" stroke-width="1.1" points="274.59,-73.83 277.52,-65.88 270.27,-70.27 274.59,-73.83"/>
<text xml:space="preserve" text-anchor="middle" x="294.68" y="-99.19" font-family="Helvetica,sans-Serif" font-size="10.00" fill="#2a2a2a">SUPPLIED_BY ·004</text>
</g>
<!-- Order&#45;&gt;Product -->
<g id="edge3" class="edge">
<title>Order&#45;&gt;Product</title>
<path fill="none" stroke="#3a3a3a" stroke-width="1.1" d="M362.02,-294.11C345.07,-284.31 321.4,-270.34 301.1,-257.3 273.99,-239.88 244.07,-219.1 221.62,-203.18"/>
<polygon fill="#3a3a3a" stroke="#3a3a3a" stroke-width="1.1" points="223.51,-201.09 215.36,-198.73 220.26,-205.65 223.51,-201.09"/>
<text xml:space="preserve" text-anchor="middle" x="337.85" y="-247.8" font-family="Helvetica,sans-Serif" font-size="10.00" fill="#2a2a2a">CONTAINS ·006</text>
</g>
<!-- OrderStatus -->
<g id="node8" class="node">
<title>OrderStatus</title>
<ellipse fill="#accce4" stroke="#37618e" stroke-width="1.6" cx="481.6" cy="-177" rx="50.3" ry="50.3"/>
<text xml:space="preserve" text-anchor="middle" x="481.6" y="-172.15" font-family="Helvetica,sans-Serif" font-size="13.00">OrderStatus</text>
</g>
<!-- Order&#45;&gt;OrderStatus -->
<g id="edge12" class="edge">
<title>Order&#45;&gt;OrderStatus</title>
<path fill="none" stroke="#3a3a3a" stroke-width="1.1" d="M411.08,-304.08C438.97,-299.45 481.57,-287.57 501.6,-257.3 506.72,-249.57 507.93,-240.62 506.88,-231.58"/>
<polygon fill="#3a3a3a" stroke="#3a3a3a" stroke-width="1.1" points="509.65,-231.12 505.37,-223.8 504.15,-232.19 509.65,-231.12"/>
<text xml:space="preserve" text-anchor="middle" x="549.53" y="-247.8" font-family="Helvetica,sans-Serif" font-size="10.00" fill="#2a2a2a">HAS_STATUS ·010</text>
</g>
<!-- Order&#45;&gt;OrderStatus -->
<g id="edge14" class="edge">
<title>Order&#45;&gt;OrderStatus</title>
<path fill="none" stroke="#3a3a3a" stroke-width="1.1" d="M378.04,-282.27C376.24,-270.45 376.17,-256.47 382.1,-245.3 391.9,-226.85 409.26,-212.54 426.77,-201.94"/>
<polygon fill="#3a3a3a" stroke="#3a3a3a" stroke-width="1.1" points="427.81,-204.58 433.35,-198.17 425.02,-199.72 427.81,-204.58"/>
<text xml:space="preserve" text-anchor="middle" x="439.85" y="-247.8" font-family="Helvetica,sans-Serif" font-size="10.00" fill="#2a2a2a">CURRENT_STATUS ·010</text>
</g>
<!-- Day -->
<g id="node11" class="node">
<title>Day</title>
<ellipse fill="#accce4" stroke="#37618e" stroke-width="1.6" cx="673.6" cy="-177" rx="19.82" ry="19.82"/>
<text xml:space="preserve" text-anchor="middle" x="673.6" y="-172.15" font-family="Helvetica,sans-Serif" font-size="13.00">Day</text>
</g>
<!-- Order&#45;&gt;Day -->
<g id="edge15" class="edge">
<title>Order&#45;&gt;Day</title>
<path fill="none" stroke="#3a3a3a" stroke-width="1.1" d="M411.12,-305.53C453.04,-302.24 536.07,-291.57 596.6,-257.3 621.15,-243.4 642.9,-219.32 656.96,-201.33"/>
<polygon fill="#3a3a3a" stroke="#3a3a3a" stroke-width="1.1" points="658.89,-203.42 661.5,-195.36 654.43,-200.03 658.89,-203.42"/>
<text xml:space="preserve" text-anchor="middle" x="660.49" y="-247.8" font-family="Helvetica,sans-Serif" font-size="10.00" fill="#2a2a2a">ORDERED_ON ·010</text>
</g>
<!-- Review&#45;&gt;Product -->
<g id="edge5" class="edge">
<title>Review&#45;&gt;Product</title>
<path fill="none" stroke="#3a3a3a" stroke-width="1.1" d="M125.34,-279.31C136.67,-260.57 151.77,-235.6 164.14,-215.14"/>
<polygon fill="#3a3a3a" stroke="#3a3a3a" stroke-width="1.1" points="166.48,-216.68 168.23,-208.39 161.69,-213.78 166.48,-216.68"/>
<text xml:space="preserve" text-anchor="middle" x="179.76" y="-247.8" font-family="Helvetica,sans-Serif" font-size="10.00" fill="#2a2a2a">REVIEWS ·003</text>
</g>
<!-- Category&#45;&gt;Category -->
<g id="edge10" class="edge">
<title>Category&#45;&gt;Category</title>
<path fill="none" stroke="#3a3a3a" stroke-width="1.1" d="M113.93,-51.17C124.69,-50.65 132.95,-46.71 132.95,-39.35 132.95,-34.29 129.05,-30.84 123.11,-29.02"/>
<polygon fill="#3a3a3a" stroke="#3a3a3a" stroke-width="1.1" points="123.92,-26.31 115.57,-27.79 123.02,-31.84 123.92,-26.31"/>
<text xml:space="preserve" text-anchor="middle" x="191.08" y="-35.85" font-family="Helvetica,sans-Serif" font-size="10.00" fill="#2a2a2a">SUBCATEGORY_OF ·007</text>
</g>
<!-- OrderStatus&#45;&gt;OrderStatus -->
<g id="edge13" class="edge">
<title>OrderStatus&#45;&gt;OrderStatus</title>
<path fill="none" stroke="#3a3a3a" stroke-width="1.1" d="M530.72,-190.59C541.8,-189.36 549.91,-184.83 549.91,-177 549.91,-171.61 546.08,-167.78 540.08,-165.52"/>
<polygon fill="#3a3a3a" stroke="#3a3a3a" stroke-width="1.1" points="540.77,-162.81 532.35,-163.77 539.53,-168.27 540.77,-162.81"/>
<text xml:space="preserve" text-anchor="middle" x="574.28" y="-173.5" font-family="Helvetica,sans-Serif" font-size="10.00" fill="#2a2a2a">NEXT ·010</text>
</g>
<!-- Year -->
<g id="node9" class="node">
<title>Year</title>
<ellipse fill="#accce4" stroke="#37618e" stroke-width="1.6" cx="748.6" cy="-429.91" rx="21.72" ry="21.72"/>
<text xml:space="preserve" text-anchor="middle" x="748.6" y="-425.06" font-family="Helvetica,sans-Serif" font-size="13.00">Year</text>
</g>
<!-- Month -->
<g id="node10" class="node">
<title>Month</title>
<ellipse fill="#accce4" stroke="#37618e" stroke-width="1.6" cx="748.6" cy="-307.98" rx="27.91" ry="27.91"/>
<text xml:space="preserve" text-anchor="middle" x="748.6" y="-303.13" font-family="Helvetica,sans-Serif" font-size="13.00">Month</text>
</g>
<!-- Year&#45;&gt;Month -->
<g id="edge16" class="edge">
<title>Year&#45;&gt;Month</title>
<path fill="none" stroke="#3a3a3a" stroke-width="1.1" d="M748.6,-407.47C748.6,-390.45 748.6,-366.24 748.6,-346.09"/>
<polygon fill="#3a3a3a" stroke="#3a3a3a" stroke-width="1.1" points="751.4,-346.23 748.6,-338.23 745.8,-346.23 751.4,-346.23"/>
<text xml:space="preserve" text-anchor="middle" x="790.98" y="-361.16" font-family="Helvetica,sans-Serif" font-size="10.00" fill="#2a2a2a">HAS_MONTH ·010</text>
</g>
<!-- Month&#45;&gt;Day -->
<g id="edge17" class="edge">
<title>Month&#45;&gt;Day</title>
<path fill="none" stroke="#3a3a3a" stroke-width="1.1" d="M741.2,-280.36C737.56,-269.17 732.65,-256.25 726.6,-245.3 717.4,-228.65 704.17,-211.84 693.22,-199.18"/>
<polygon fill="#3a3a3a" stroke="#3a3a3a" stroke-width="1.1" points="695.59,-197.63 688.2,-193.49 691.39,-201.34 695.59,-197.63"/>
<text xml:space="preserve" text-anchor="middle" x="766.27" y="-247.8" font-family="Helvetica,sans-Serif" font-size="10.00" fill="#2a2a2a">HAS_DAY ·010</text>
</g>
</g>
</svg>
